<svg width="16" height="16" viewBox="0 0 16 16" fill="none" xmlns="http://www.w3.org/2000/svg">
<path d="M13.0694 5.15735L8.38444 9.76835C8.28221 9.86948 8.14423 9.92621 8.00044 9.92621C7.85664 9.92621 7.71866 9.86948 7.61644 9.76835L2.93144 5.15835C2.82858 5.05728 2.69014 5.00064 2.54594 5.00064C2.40173 5.00064 2.26329 5.05728 2.16044 5.15835C2.10979 5.20773 2.06954 5.26675 2.04205 5.33192C2.01457 5.3971 2.00041 5.46712 2.00041 5.53786C2.00041 5.60859 2.01457 5.67861 2.04205 5.74378C2.06954 5.80896 2.10979 5.86798 2.16044 5.91735L6.84444 10.5274C7.15296 10.8303 7.56806 11 8.00044 11C8.43281 11 8.84791 10.8303 9.15644 10.5274L13.8404 5.91735C13.8912 5.86796 13.9316 5.80888 13.9592 5.74362C13.9868 5.67835 14.001 5.60821 14.001 5.53735C14.001 5.4665 13.9868 5.39636 13.9592 5.33109C13.9316 5.26583 13.8912 5.20675 13.8404 5.15735C13.7376 5.05628 13.5991 4.99964 13.4549 4.99964C13.3107 4.99964 13.1723 5.05628 13.0694 5.15735Z" fill="#9DA3AF"/>
</svg>
